<svg enable-background="new 0 0 288.861 288.861" viewBox="0 0 288.861 288.861" xmlns="http://www.w3.org/2000/svg"><path d="m167.172 288.861h-62.16v-129.514h-34.243v-59.48h34.242v-33.4c0-30.663 19.184-66.467 73.273-66.467 19.068 0 33.066 1.787 33.651 1.864l5.739.746-1.382 55.663-6.324-.058c-.013 0-14.223-.135-29.724-.135-11.536 0-13.066 2.847-13.066 14.171v27.629h50.913l-2.821 59.48h-48.086v129.501zm-49.314-12.854h36.453v-129.507h48.677l1.607-33.779h-50.284v-40.483c0-13.368 3.078-27.025 25.919-27.025 9.178 0 17.899.045 23.509.09l.778-31.292c-5.675-.508-15.116-1.157-26.247-1.157-44.544 0-60.419 27.693-60.419 53.613v46.254h-34.241v33.779h34.242v129.507z"/></svg>