<svg xmlns="http://www.w3.org/2000/svg" viewBox="0 0 5669.29 4607.55"><defs><style>.cls-1{isolation:isolate;}.cls-2{fill:#333;}.cls-3{fill:#1a1a1a;}.cls-4{fill:#4d4d4d;}.cls-5{fill:gray;}.cls-6{fill:#1b3864;opacity:0.9;mix-blend-mode:overlay;}</style></defs><title>Rityta 1</title><g class="cls-1"><g id="Lager_1" data-name="Lager 1"><path d="M3577.27,3113.74l-7-61c-75,50.58-160.5,71.52-246,71.52-242.49,0-498.92-169.2-498.92-631.47,0-464,259.92-631.47,491.94-631.47,174.43,0,359.34,94.19,450.06,368.07l-223.28,55.82c-52.35-169.21-139.56-211.08-225-211.08-111.64,0-258.17,71.53-258.17,418.66,0,348.88,146.52,418.66,270.37,418.66,80.25,0,177.93-29.66,225-116.89V2677.64H3322.59V2466.57h465.75v647.17Z"/><path d="M3999.32,3974.07c0-464,256.43-631.48,498.92-631.48s500.64,167.46,500.64,631.48-258.17,631.48-500.64,631.48S3999.32,4438.09,3999.32,3974.07Zm764.06,0c0-347.13-144.79-418.67-265.15-418.67s-263.41,71.53-263.41,418.67,143,418.67,263.41,418.67S4763.38,4321.21,4763.38,3974.07Z"/><path d="M3619.15,4595.09V3801.37l-207.59,375.07H3282.47l-207.59-375.07v793.72h-232v-1242h232L3347,3845l272.13-491.92h232v1242Z"/><path d="M4656.93,2492.73c0-464,256.43-631.47,498.9-631.47s500.65,167.46,500.65,631.47-258.17,631.47-500.65,631.47S4656.93,2956.74,4656.93,2492.73Zm764.06,0c0-347.13-144.79-418.66-265.16-418.66s-263.39,71.53-263.39,418.66,143,418.66,263.39,418.66S5421,2839.87,5421,2492.73Z"/><path d="M3945.25,3113.74v-1242h232V2902.68h444.83v211.06Z"/><polygon class="cls-2" points="2218.26 2511.7 1484.6 2097.02 1117.13 1889.04 750.94 1682.34 12.18 1263.84 12.18 1262.56 1484.6 1262.56 1852.07 1889.04 2218.26 2511.7"/><polygon class="cls-3" points="1484.6 1262.56 750.94 1262.56 750.94 14.7 1117.13 637.35 1484.6 1262.56"/><polygon class="cls-4" points="2958.3 1261.28 2957.02 1262.56 2218.26 844.05 1852.07 637.35 1484.6 429.38 750.94 14.7 750.94 1262.56 12.18 1262.56 12.18 1262.56 10.9 1261.28 747.11 9.6 2222.09 9.6 2958.3 1261.28"/><polygon class="cls-5" points="2957.02 1262.56 2957.02 1262.56 2957.02 1263.84 2222.09 2512.97 747.11 2512.97 12.18 1263.84 750.94 1682.34 1117.13 1889.04 1484.6 2097.02 2218.26 2511.7 1852.07 1889.04 1117.13 637.35 750.94 14.7 1484.6 429.38 1852.07 637.35 2218.26 844.05 2957.02 1262.56"/><polygon class="cls-6" points="2956.62 1261.28 2955.27 1262.64 2955.27 1263.76 2220.93 2512.97 746.62 2512.97 12.28 1263.76 12.28 1262.64 10.93 1261.28 746.62 9.6 2220.93 9.6 2956.62 1261.28"/></g></g></svg>