<svg enable-background="new 0 0 512 512" viewBox="0 0 512 512" xmlns="http://www.w3.org/2000/svg"><path d="m363.273 0h-214.545c-82.009 0-148.728 66.719-148.728 148.728v214.544c0 82.009 66.719 148.728 148.728 148.728h214.544c82.009 0 148.728-66.719 148.728-148.727v-214.545c0-82.009-66.719-148.728-148.727-148.728zm108.727 363.272c0 59.953-48.775 108.728-108.727 108.728h-214.545c-59.953 0-108.728-48.775-108.728-108.727v-214.545c0-59.953 48.775-108.728 108.728-108.728h214.544c59.953 0 108.728 48.775 108.728 108.728z"/><path d="m256 118c-76.094 0-138 61.906-138 138s61.906 138 138 138 138-61.906 138-138-61.906-138-138-138zm0 236c-54.037 0-98-43.963-98-98s43.963-98 98-98 98 43.963 98 98-43.963 98-98 98z"/><circle cx="396" cy="116" r="20"/></svg>