<svg enable-background="new 0 0 492.004 492.004" viewBox="0 0 492.004 492.004" xmlns="http://www.w3.org/2000/svg"><path d="m382.678 226.804-218.948-218.944c-5.064-5.068-11.824-7.86-19.032-7.86s-13.968 2.792-19.032 7.86l-16.124 16.12c-10.492 10.504-10.492 27.576 0 38.064l183.856 183.856-184.06 184.06c-5.064 5.068-7.86 11.824-7.86 19.028 0 7.212 2.796 13.968 7.86 19.04l16.124 16.116c5.068 5.068 11.824 7.86 19.032 7.86s13.968-2.792 19.032-7.86l219.152-219.144c5.076-5.084 7.864-11.872 7.848-19.088.016-7.244-2.772-14.028-7.848-19.108z"/></svg>