<svg enable-background="new 0 0 341.117 341.117" viewBox="0 0 341.117 341.117" xmlns="http://www.w3.org/2000/svg"><path d="m115.394 304.407c-33.085 0-65.862-9.158-94.777-26.479l-20.617-12.346 24.024.405c.778.039 2.031.103 4.004.103 9.145 0 38.278-1.472 68.15-18.329-22.455-6.677-41.01-24.036-48.651-46.762l-3.785-11.253 10.309 2.68c-16.523-12.693-27.333-32.205-28.516-53.953l-.566-10.411 9.557 4.171c1.742.765 3.515 1.44 5.315 2.024-13.573-18.998-21.787-48.355-4.659-79.538l4.717-8.593 5.996 7.757c28.728 37.141 71.325 59.789 117.778 62.899-.283-2.886-.482-5.54-.482-6.369 0-34.474 26.234-70.13 70.13-70.13 18.426 0 36.164 7.32 49.23 20.206 17.513-4.113 34.249-14.325 34.429-14.435l15.18-9.345-5.733 16.883c-2.751 8.085-6.941 15.534-12.314 22.038 2.931-.958 5.81-2.057 8.773-3.348l18.233-8.908-7.661 16.453c-6.324 13.593-16.87 24.808-29.968 31.98 2.879 44.994-15.624 95.194-48.908 132.059-24.705 27.372-68.703 60.084-138.016 60.528zm-67.553-26.935c21.427 9.248 44.409 14.075 67.546 14.075l1.099-.006c64.628-.411 105.586-30.836 128.556-56.286 32.031-35.483 49.397-83.999 45.309-126.621l-.431-4.524 4.113-1.915c6.523-3.04 12.365-7.262 17.269-12.397-5.488 1.388-11.343 2.423-18.092 3.239l-4.929.598-3.843-9.743 4.473-3.445c6.266-3.67 11.729-8.451 16.144-14.049-6.986 2.976-15.232 5.887-23.477 7.423l-3.522.656-2.41-2.648c-10.836-11.89-26.254-18.702-42.321-18.702-35.849 0-57.276 29.12-57.276 57.276 0 1.703.848 9.454 1.15 11.446l2.918 8.297-9.28-.199c-49.744-1.073-96.023-22.873-128.511-60.181-12.854 33.754 8.728 60.721 19.036 68.799l15.071 11.819-19.146-.334c-5.996-.103-11.864-.919-17.552-2.436 5.058 22.558 22.886 40.682 46.048 45.656l25.354 5.45-24.962 7.025c-4.351 1.221-9.287 1.838-14.672 1.838-2.519 0-4.929-.135-7.153-.341 10.039 17.674 28.734 29.551 49.416 30.56l18.072.887-14.574 10.711c-24.981 18.374-50.894 25.45-69.423 28.072z"/></svg>